<mxfile host="app.diagrams.net" modified="2023-11-18T06:53:05.530Z" agent="Mozilla/5.0 (Windows NT 10.0; Win64; x64) AppleWebKit/537.36 (KHTML, like Gecko) Chrome/119.0.0.0 Safari/537.36 Edg/119.0.0.0" version="22.1.3" etag="4aQYTHb0d15m_FMEpTap" type="github">
  <diagram name="第 1 页" id="Xyey4aHe07dYJdzRdzyU">
    <mxGraphModel>
      <root>
        <mxCell id="0" />
        <mxCell id="1" parent="0" />
      </root>
    </mxGraphModel>
  </diagram>
</mxfile>
